<svg xmlns="http://www.w3.org/2000/svg" viewBox="0 0 820 540" font-family="system-ui, -apple-system, sans-serif" font-size="13">
  <defs>
    <marker id="a" markerWidth="8" markerHeight="6" refX="8" refY="3" orient="auto">
      <path d="M0,0 L8,3 L0,6" fill="#58a6ff"/>
    </marker>
    <marker id="g" markerWidth="8" markerHeight="6" refX="8" refY="3" orient="auto">
      <path d="M0,0 L8,3 L0,6" fill="#3fb950"/>
    </marker>
    <marker id="o" markerWidth="8" markerHeight="6" refX="8" refY="3" orient="auto">
      <path d="M0,0 L8,3 L0,6" fill="#d29922"/>
    </marker>
    <marker id="p" markerWidth="8" markerHeight="6" refX="8" refY="3" orient="auto">
      <path d="M0,0 L8,3 L0,6" fill="#bc8cff"/>
    </marker>
    <marker id="r" markerWidth="8" markerHeight="6" refX="8" refY="3" orient="auto">
      <path d="M0,0 L8,3 L0,6" fill="#f85149"/>
    </marker>
  </defs>

  <!-- Background -->
  <rect width="820" height="540" rx="8" fill="#0d1117"/>

  <!-- Title -->
  <text x="410" y="32" text-anchor="middle" fill="#e6edf3" font-size="16" font-weight="600">Profile System</text>

  <!-- Profile TOML (top center) -->
  <rect x="250" y="52" width="320" height="160" rx="6" fill="#161b22" stroke="#58a6ff" stroke-width="2"/>
  <text x="410" y="75" text-anchor="middle" fill="#58a6ff" font-weight="600" font-size="14">profiles/researcher.toml</text>
  <text x="268" y="97" fill="#8b949e" font-size="11">[agent]</text>
  <text x="278" y="112" fill="#e6edf3" font-size="11">model, max_turns, max_budget</text>
  <text x="268" y="132" fill="#8b949e" font-size="11">[tools]</text>
  <text x="278" y="147" fill="#e6edf3" font-size="11">allowed = ["Read", "WebSearch"...]</text>
  <text x="268" y="167" fill="#8b949e" font-size="11">[prompt] + [claude_md] + [hooks] + [resources]</text>
  <text x="278" y="182" fill="#e6edf3" font-size="11">templates, hooks, timeout, mem, cpu</text>
  <text x="268" y="202" fill="#8b949e" font-size="11">[plugins]</text>

  <!-- Legend (top-right) -->
  <rect x="620" y="52" width="175" height="110" rx="4" fill="#161b22" stroke="#30363d"/>
  <text x="635" y="72" fill="#8b949e" font-size="11" font-weight="600">Legend</text>
  <rect x="635" y="82" width="10" height="10" rx="2" fill="#3fb950"/>
  <text x="652" y="92" fill="#e6edf3" font-size="10">Jinja2 templates</text>
  <rect x="635" y="100" width="10" height="10" rx="2" fill="#d29922"/>
  <text x="652" y="110" fill="#e6edf3" font-size="10">Profile-only (no override)</text>
  <rect x="635" y="118" width="10" height="10" rx="2" fill="#f85149"/>
  <text x="652" y="128" fill="#e6edf3" font-size="10">Request can override</text>
  <rect x="635" y="136" width="10" height="10" rx="2" fill="#bc8cff"/>
  <text x="652" y="146" fill="#e6edf3" font-size="10">Engine (required in request)</text>

  <!-- Arrows: Profile → 3 columns -->
  <line x1="320" y1="212" x2="140" y2="270" stroke="#58a6ff" stroke-width="1.5" marker-end="url(#a)"/>
  <line x1="410" y1="212" x2="410" y2="270" stroke="#58a6ff" stroke-width="1.5" marker-end="url(#a)"/>
  <line x1="500" y1="212" x2="680" y2="270" stroke="#58a6ff" stroke-width="1.5" marker-end="url(#a)"/>

  <!-- Row 1: Prompt Template | Hooks | Engine -->

  <!-- Prompt Template (left) -->
  <rect x="30" y="274" width="220" height="70" rx="6" fill="#161b22" stroke="#3fb950" stroke-width="1.5"/>
  <text x="140" y="299" text-anchor="middle" fill="#3fb950" font-weight="600" font-size="12">Prompt Template</text>
  <text x="140" y="317" text-anchor="middle" fill="#8b949e" font-size="11">researcher.md.j2</text>
  <text x="140" y="334" text-anchor="middle" fill="#e6edf3" font-size="10">{{ query }} {{ criteria }}</text>

  <!-- Hooks (center) -->
  <rect x="300" y="274" width="220" height="70" rx="6" fill="#161b22" stroke="#d29922" stroke-width="1.5"/>
  <text x="410" y="299" text-anchor="middle" fill="#d29922" font-weight="600" font-size="12">Hooks (optional)</text>
  <text x="410" y="317" text-anchor="middle" fill="#8b949e" font-size="11">pre-job.sh / post-job.sh</text>
  <text x="410" y="334" text-anchor="middle" fill="#e6edf3" font-size="10">inline script or file ref</text>

  <!-- Engine (right) -->
  <rect x="570" y="274" width="220" height="70" rx="6" fill="#161b22" stroke="#bc8cff" stroke-width="1.5"/>
  <text x="680" y="299" text-anchor="middle" fill="#bc8cff" font-weight="600" font-size="12">Engine</text>
  <text x="680" y="317" text-anchor="middle" fill="#8b949e" font-size="11">claude-code.toml</text>
  <text x="680" y="334" text-anchor="middle" fill="#e6edf3" font-size="10">binary, flags, output mode</text>

  <!-- Arrows: Row 1 → Row 2 -->
  <line x1="140" y1="344" x2="140" y2="370" stroke="#3fb950" stroke-width="1" stroke-dasharray="3" marker-end="url(#g)"/>
  <line x1="410" y1="344" x2="410" y2="370" stroke="#d29922" stroke-width="1" stroke-dasharray="3" marker-end="url(#o)"/>
  <line x1="680" y1="344" x2="680" y2="370" stroke="#bc8cff" stroke-width="1" stroke-dasharray="3" marker-end="url(#p)"/>

  <!-- Row 2: CLAUDE.md Template | Resources | Request Override -->

  <!-- CLAUDE.md Template (left) -->
  <rect x="30" y="374" width="220" height="70" rx="6" fill="#161b22" stroke="#3fb950" stroke-width="1.5"/>
  <text x="140" y="399" text-anchor="middle" fill="#3fb950" font-weight="600" font-size="12">CLAUDE.md Template</text>
  <text x="140" y="417" text-anchor="middle" fill="#8b949e" font-size="11">agent-base.md.j2</text>
  <text x="140" y="434" text-anchor="middle" fill="#e6edf3" font-size="10">{{ role }} {{ constraints }}</text>

  <!-- Resources (center) -->
  <rect x="300" y="374" width="220" height="70" rx="6" fill="#161b22" stroke="#d29922" stroke-width="1.5"/>
  <text x="410" y="399" text-anchor="middle" fill="#d29922" font-weight="600" font-size="12">Resources (profile-only)</text>
  <text x="410" y="417" text-anchor="middle" fill="#e6edf3" font-size="11">timeout: 3600s</text>
  <text x="410" y="434" text-anchor="middle" fill="#e6edf3" font-size="11">mem: 4g · cpu: 2.0</text>

  <!-- Request Override (right) -->
  <rect x="570" y="374" width="220" height="70" rx="6" fill="#161b22" stroke="#f85149" stroke-width="1.5"/>
  <text x="680" y="399" text-anchor="middle" fill="#f85149" font-weight="600" font-size="12">Request Override</text>
  <text x="680" y="417" text-anchor="middle" fill="#e6edf3" font-size="11">prompt, model, max_turns</text>
  <text x="680" y="434" text-anchor="middle" fill="#8b949e" font-size="10">request wins over profile</text>

  <!-- Arrows: Row 2 → JobConfig -->
  <line x1="140" y1="444" x2="300" y2="488" stroke="#3fb950" stroke-width="1" stroke-dasharray="4" marker-end="url(#g)"/>
  <line x1="410" y1="444" x2="410" y2="478" stroke="#d29922" stroke-width="1" stroke-dasharray="4" marker-end="url(#o)"/>
  <line x1="680" y1="444" x2="520" y2="488" stroke="#f85149" stroke-width="1" stroke-dasharray="4" marker-end="url(#r)"/>

  <!-- Output: JobConfig -->
  <rect x="270" y="482" width="280" height="38" rx="6" fill="#1c2333" stroke="#58a6ff" stroke-width="1.5"/>
  <text x="410" y="506" text-anchor="middle" fill="#58a6ff" font-weight="600" font-size="13">JobConfig → inject into container</text>
</svg>
